<?xml version="1.0" encoding="UTF-8" standalone="no"?>
<!-- Created with Inkscape (http://www.inkscape.org/) -->

<svg
   inkscape:export-ydpi="90.000000"
   inkscape:export-xdpi="90.000000"
   width="16"
   height="16"
   id="svg11300"
   sodipodi:version="0.32"
   inkscape:version="1.4.2 (ebf0e940d0, 2025-05-08)"
   sodipodi:docname="kronomi-alarm-symbolic.svg"
   inkscape:output_extension="org.inkscape.output.svg.inkscape"
   version="1.0"
   style="display:inline;enable-background:new"
   xml:space="preserve"
   xmlns:inkscape="http://www.inkscape.org/namespaces/inkscape"
   xmlns:sodipodi="http://sodipodi.sourceforge.net/DTD/sodipodi-0.dtd"
   xmlns="http://www.w3.org/2000/svg"
   xmlns:svg="http://www.w3.org/2000/svg"
   xmlns:rdf="http://www.w3.org/1999/02/22-rdf-syntax-ns#"
   xmlns:cc="http://creativecommons.org/ns#"
   xmlns:dc="http://purl.org/dc/elements/1.1/"><sodipodi:namedview
     stroke="#ef2929"
     fill="#f57900"
     id="base"
     pagecolor="#8c8c8c"
     bordercolor="#ff5e00"
     borderopacity="1"
     inkscape:pageopacity="0"
     inkscape:pageshadow="2"
     inkscape:zoom="22.627417"
     inkscape:cx="9.2144852"
     inkscape:cy="7.6013979"
     inkscape:current-layer="layer1"
     showgrid="true"
     inkscape:grid-bbox="true"
     inkscape:document-units="px"
     inkscape:showpageshadow="false"
     inkscape:window-width="1366"
     inkscape:window-height="729"
     inkscape:window-x="0"
     inkscape:window-y="0"
     width="400px"
     height="300px"
     inkscape:snap-nodes="true"
     inkscape:snap-bbox="true"
     gridtolerance="10000"
     inkscape:object-nodes="true"
     inkscape:snap-grids="true"
     showguides="true"
     inkscape:guide-bbox="true"
     inkscape:window-maximized="1"
     inkscape:bbox-nodes="true"
     inkscape:bbox-paths="false"
     inkscape:snap-bbox-edge-midpoints="false"
     inkscape:snap-bbox-midpoints="false"
     objecttolerance="10000"
     guidetolerance="10000"
     borderlayer="true"
     showborder="true"
     guidecolor="#ff0b00"
     guideopacity="1"
     guidehicolor="#001aff"
     guidehiopacity="0.49803922"
     inkscape:snap-smooth-nodes="true"
     inkscape:object-paths="false"
     inkscape:snap-global="true"
     inkscape:snap-center="true"
     inkscape:pagecheckerboard="0"
     inkscape:deskcolor="#d1d1d1"><inkscape:grid
       type="xygrid"
       id="grid3123"
       empspacing="4"
       visible="true"
       enabled="true"
       snapvisiblegridlinesonly="true"
       originx="0"
       originy="0"
       spacingy="1"
       spacingx="1"
       units="px" /></sodipodi:namedview><defs
     id="defs3"><linearGradient
       id="linearGradient5606"
       inkscape:swatch="solid"><stop
         id="stop5608"
         offset="0"
         style="stop-color:#000000;stop-opacity:1;" /></linearGradient></defs><metadata
     id="metadata4"><rdf:RDF><cc:Work
         rdf:about=""><dc:format>image/svg+xml</dc:format><dc:type
           rdf:resource="http://purl.org/dc/dcmitype/StillImage" /><dc:creator><cc:Agent><dc:title /></cc:Agent></dc:creator><dc:source /><cc:license
           rdf:resource="" /><dc:title /><dc:subject><rdf:Bag /></dc:subject><dc:date /><dc:rights><cc:Agent><dc:title /></cc:Agent></dc:rights><dc:publisher><cc:Agent><dc:title /></cc:Agent></dc:publisher><dc:identifier /><dc:relation /><dc:language /><dc:coverage /><dc:description /><dc:contributor><cc:Agent><dc:title /></cc:Agent></dc:contributor></cc:Work><cc:Work
         rdf:about=""><dc:format>image/svg+xml</dc:format><dc:type
           rdf:resource="http://purl.org/dc/dcmitype/StillImage" /></cc:Work></rdf:RDF></metadata><g
     style="display:inline"
     inkscape:groupmode="layer"
     inkscape:label="Base"
     id="layer1"
     transform="translate(0,-284)"><path
       class="fg"
       fill="#2e3436"
       d="M 5 0 A 4 4 0 0 0 1 4 A 4 4 0 0 0 1.1171875 4.9394531 A 8 8 0 0 1 7.6464844 1.0117188 A 4 4 0 0 0 5 0 z M 11 0 A 4 4 0 0 0 8.3476562 1.0175781 A 8 8 0 0 1 14.882812 4.9414062 A 4 4 0 0 0 15 4 A 4 4 0 0 0 11 0 z M 8 2 A 7 7 0 0 0 1 9 A 7 7 0 0 0 2.53125 13.357422 A 1.5 1.5 0 0 0 2 14.5 A 1.5 1.5 0 0 0 3.5 16 A 1.5 1.5 0 0 0 4.8105469 15.230469 A 7 7 0 0 0 8 16 A 7 7 0 0 0 11.189453 15.222656 A 1.5 1.5 0 0 0 12.5 16 A 1.5 1.5 0 0 0 14 14.5 A 1.5 1.5 0 0 0 13.474609 13.361328 A 7 7 0 0 0 15 9 A 7 7 0 0 0 8 2 z M 8 4 A 5 5 0 0 1 13 9 A 5 5 0 0 1 8 14 A 5 5 0 0 1 3 9 A 5 5 0 0 1 8 4 z M 9.9804688 5.9902344 A 1.0001 1.0001 0 0 0 9.2929688 6.2929688 L 7.8027344 7.7832031 L 6.4472656 7.1054688 A 1.0001152 1.0001152 0 0 0 5.5527344 8.8945312 L 7.5527344 9.8945312 A 1.0001 1.0001 0 0 0 8.7070312 9.7070312 L 10.707031 7.7070312 A 1.0001 1.0001 0 0 0 9.9804688 5.9902344 z "
       transform="translate(0,284)"
       id="path4469-2"
       style="fill:#bebebe;fill-opacity:1" /></g></svg>
